<?xml version="1.0" standalone="no"?>
<!DOCTYPE svg PUBLIC "-//W3C//DTD SVG 20010904//EN"
 "http://www.w3.org/TR/2001/REC-SVG-20010904/DTD/svg10.dtd">
<svg version="1.0" xmlns="http://www.w3.org/2000/svg"
 width="700.000000pt" height="700.000000pt" viewBox="0 0 700.000000 700.000000"
 preserveAspectRatio="xMidYMid meet">
<metadata>
Created by potrace 1.14, written by Peter Selinger 2001-2017
</metadata>
<g transform="translate(0.000000,700.000000) scale(0.100000,-0.100000)"
fill="#000000" stroke="none">
<path d="M3229 6990 c-1468 -124 -2689 -1123 -3095 -2535 -91 -314 -128 -592
-128 -955 0 -292 13 -435 64 -690 258 -1291 1231 -2333 2507 -2684 318 -88
567 -120 923 -120 572 0 1056 112 1554 361 846 422 1475 1149 1772 2048 195
592 225 1229 88 1848 -295 1331 -1355 2379 -2693 2661 -287 61 -714 89 -992
66z m516 -270 c950 -80 1778 -538 2347 -1297 969 -1295 814 -3133 -359 -4253
-1071 -1023 -2687 -1191 -3941 -409 -1220 759 -1791 2244 -1397 3626 306 1068
1150 1912 2218 2218 211 60 421 96 682 118 92 8 338 6 450 -3z"/>
<path d="M3255 6424 c-619 -66 -1124 -268 -1586 -635 -497 -395 -857 -956
-1013 -1577 -66 -263 -80 -389 -80 -712 0 -245 3 -305 22 -427 100 -640 379
-1192 831 -1644 461 -460 1015 -737 1676 -836 186 -28 630 -25 822 5 640 100
1192 379 1644 831 452 452 731 1004 831 1644 19 122 22 182 22 427 0 245 -3
305 -22 427 -101 643 -382 1198 -836 1648 -160 159 -260 243 -426 354 -294
197 -578 325 -916 411 -246 63 -391 81 -679 85 -137 2 -268 1 -290 -1z m-1580
-1189 l25 -24 0 -536 0 -535 63 49 c280 219 717 375 1257 448 195 26 765 26
960 0 263 -36 500 -90 710 -162 159 -55 410 -182 518 -264 l92 -70 0 495 c0
588 -14 534 139 534 106 0 125 -8 136 -53 3 -12 4 -638 3 -1392 l-3 -1370 -27
-51 c-117 -222 -570 -412 -1205 -504 -288 -41 -472 -53 -843 -53 -372 0 -557
12 -842 53 -638 93 -1089 282 -1206 504 l-27 51 0 1433 0 1434 24 19 c19 16
39 19 113 19 81 0 91 -2 113 -25z"/>
<path d="M2618 3760 c-291 -50 -513 -240 -610 -520 -30 -89 -32 -104 -32 -230
-1 -156 13 -221 74 -345 75 -151 194 -270 345 -345 162 -79 100 -75 1105 -75
1005 0 943 -4 1105 75 151 75 270 194 345 345 61 124 75 189 74 345 0 126 -2
141 -32 230 -87 250 -267 423 -524 502 l-73 22 -865 2 c-476 1 -886 -2 -912
-6z m190 -380 c115 -21 215 -96 273 -202 33 -61 34 -67 34 -173 0 -102 -2
-114 -29 -168 -37 -72 -118 -150 -193 -185 -79 -36 -209 -38 -295 -3 -81 31
-160 106 -200 189 -31 62 -33 74 -33 167 0 87 3 107 26 155 52 109 149 188
264 216 63 16 90 16 153 4z m1538 -21 c34 -13 77 -41 112 -74 164 -151 170
-396 14 -552 -230 -230 -625 -82 -649 242 -22 283 253 485 523 384z"/>
</g>
</svg>
