<?xml version="1.0" standalone="no"?>
<!DOCTYPE svg PUBLIC "-//W3C//DTD SVG 20010904//EN"
 "http://www.w3.org/TR/2001/REC-SVG-20010904/DTD/svg10.dtd">
<svg version="1.0" xmlns="http://www.w3.org/2000/svg"
 width="700.000000pt" height="700.000000pt" viewBox="0 0 700.000000 700.000000"
 preserveAspectRatio="xMidYMid meet">
<metadata>
Created by potrace 1.14, written by Peter Selinger 2001-2017
</metadata>
<g transform="translate(0.000000,700.000000) scale(0.100000,-0.100000)"
fill="#000000" stroke="none">
<path d="M3175 6989 c-1469 -136 -2709 -1200 -3071 -2632 -72 -287 -104 -547
-104 -857 0 -223 12 -379 45 -577 213 -1268 1106 -2320 2325 -2738 223 -76
454 -129 730 -167 148 -20 681 -17 840 5 812 114 1503 460 2064 1031 543 553
867 1232 978 2046 17 129 17 673 0 800 -62 452 -168 802 -355 1175 -331 662
-890 1221 -1552 1552 -401 201 -827 323 -1262 362 -138 13 -504 12 -638 0z
m680 -285 c1386 -148 2531 -1195 2805 -2564 44 -222 61 -397 61 -640 0 -500
-100 -947 -312 -1388 -485 -1012 -1436 -1688 -2554 -1817 -282 -32 -672 -18
-955 36 -1090 208 -1995 959 -2403 1994 -148 375 -218 755 -218 1175 0 242 16
417 61 640 178 888 732 1669 1512 2131 605 359 1296 509 2003 433z"/>
<path d="M3305 6430 c-621 -45 -1186 -270 -1664 -660 -517 -423 -882 -1023
-1015 -1672 -44 -212 -59 -365 -59 -598 0 -598 159 -1123 489 -1622 378 -570
946 -992 1604 -1191 451 -137 958 -158 1436 -62 956 193 1780 890 2139 1808
136 349 197 680 197 1067 0 300 -36 561 -113 823 -266 894 -929 1605 -1802
1931 -370 138 -827 205 -1212 176z m-1631 -1196 c14 -14 16 -78 16 -555 0
-296 3 -539 8 -539 4 0 18 10 32 21 330 267 873 445 1495 490 193 14 544 6
735 -16 517 -61 962 -216 1266 -442 40 -29 74 -53 78 -53 3 0 6 224 6 497 0
448 2 498 17 515 13 15 32 18 113 18 81 0 100 -3 114 -18 15 -17 16 -124 14
-1413 -3 -1596 8 -1425 -103 -1534 -216 -212 -704 -362 -1415 -437 -170 -18
-930 -18 -1100 0 -708 74 -1201 226 -1415 437 -111 109 -100 -67 -103 1574 -2
1326 -1 1436 14 1453 14 15 33 18 115 18 75 0 101 -4 113 -16z"/>
<path d="M2574 3755 c-289 -63 -524 -295 -588 -582 -20 -90 -21 -257 -1 -341
76 -320 346 -557 677 -592 122 -13 1554 -13 1676 0 331 35 601 272 677 592 20
84 19 251 -1 341 -65 289 -300 521 -592 582 -95 21 -1755 20 -1848 0z m280
-389 c118 -36 219 -140 251 -260 59 -219 -78 -435 -303 -476 -209 -37 -416
121 -438 337 -18 170 91 338 257 397 56 19 172 20 233 2z m1508 -18 c73 -34
146 -106 184 -183 26 -54 29 -70 29 -160 0 -87 -3 -107 -27 -157 -72 -154
-246 -248 -406 -218 -298 55 -421 405 -220 626 84 91 165 125 293 121 72 -2
101 -8 147 -29z"/>
</g>
</svg>
