<?xml version="1.0" encoding="UTF-8" standalone="no"?>
<svg
   version="1.1"
   preserveAspectRatio="xMidYMid meet"
   viewBox="0 0 600 400"
   width="600"
   height="400"
   id="svg1130"
   sodipodi:docname="discord.svg"
   inkscape:version="1.1.2 (0a00cf5339, 2022-02-04, custom)"
   xmlns:inkscape="http://www.inkscape.org/namespaces/inkscape"
   xmlns:sodipodi="http://sodipodi.sourceforge.net/DTD/sodipodi-0.dtd"
   xmlns:xlink="http://www.w3.org/1999/xlink"
   xmlns="http://www.w3.org/2000/svg"
   xmlns:svg="http://www.w3.org/2000/svg">
  <sodipodi:namedview
     id="namedview1132"
     pagecolor="#505050"
     bordercolor="#eeeeee"
     borderopacity="1"
     inkscape:pageshadow="0"
     inkscape:pageopacity="0"
     inkscape:pagecheckerboard="0"
     showgrid="false"
     inkscape:zoom="1.045"
     inkscape:cx="533.01435"
     inkscape:cy="364.5933"
     inkscape:window-width="1920"
     inkscape:window-height="1029"
     inkscape:window-x="0"
     inkscape:window-y="27"
     inkscape:window-maximized="1"
     inkscape:current-layer="g1128" />
  <defs
     id="defs1100">
    <linearGradient
       inkscape:collect="always"
       id="linearGradient65967">
      <stop
         style="stop-color:#181259;stop-opacity:1"
         offset="0"
         id="stop65963" />
      <stop
         style="stop-color:#270e49;stop-opacity:1"
         offset="1"
         id="stop65965" />
    </linearGradient>
    <linearGradient
       inkscape:collect="always"
       id="linearGradient55613">
      <stop
         style="stop-color:#590000;stop-opacity:1;"
         offset="0"
         id="stop55609" />
      <stop
         style="stop-color:#480929;stop-opacity:1"
         offset="1"
         id="stop55611" />
    </linearGradient>
    <path
       d="M-647.94 896.59L-89 896.59L-610.5 1036.33L-647.94 896.59ZM-55.03 887.49L-55.03 752.83L-441.35 700.32L-441.35 700.32L-447.21 700.32L-501.51 646.02L-39.66 522.27L50.62 859.18L-55.03 887.49ZM-663.82 837.33L-679.44 779.04L-663.82 794.66L-663.82 837.33ZM-700.78 699.41L-634.94 681.77L-690.59 737.43L-700.78 699.41Z"
       id="a4ZXHpesvR" />
    <linearGradient
       id="gradientc3rdh3yr0m"
       gradientUnits="userSpaceOnUse"
       x1="-344.45"
       y1="655.82"
       x2="-131.31"
       y2="607.38">
      <stop
         style="stop-color: #270e49;stop-opacity: 1"
         offset="0%"
         id="stop1075" />
      <stop
         style="stop-color: #181259;stop-opacity: 1"
         offset="100%"
         id="stop1077" />
    </linearGradient>
    <path
       d="M-652.18 896.09L-257.23 896.09L-454.7 1093.56L-652.18 896.09ZM-549.75 699.81L-549.75 727.74L-663.82 727.74L-663.82 884.45L-867.27 681L-663.82 477.55L-441.55 699.81L-549.75 699.81ZM-663.82 727.74L-549.75 727.74L-549.75 699.81L-663.82 727.74Z"
       id="agkMD4roq" />
    <linearGradient
       id="gradienta4Lkyszbu"
       gradientUnits="userSpaceOnUse"
       x1="-644.58"
       y1="544.63"
       x2="-567.03"
       y2="664.33">
      <stop
         style="stop-color: #590000;stop-opacity: 1"
         offset="0%"
         id="stop1081" />
      <stop
         style="stop-color: #480929;stop-opacity: 1"
         offset="100%"
         id="stop1083" />
    </linearGradient>
    <path
       d="M-495.69 645.61L-440.82 700.48L-549.09 700.48L-549.09 884.07L-257.23 884.07L-249.05 892.25L-458.51 1101.72L-705.15 855.08L-663.15 813.08L-663.15 884.07L-549.09 884.07L-549.09 700.48L-551.03 700.96L-495.69 645.61Z"
       id="a18S8xIew7" />
    <path
       d="M250 250L600 250L600 325L250 250ZM67 250L600 50L600 250L67 250Z"
       id="a1QyLh3ui9" />
    <linearGradient
       id="gradienta166xCTMhK"
       gradientUnits="userSpaceOnUse"
       x1="560.83"
       y1="161.33"
       x2="308.83"
       y2="210.67">
      <stop
         style="stop-color: #181259;stop-opacity: 1"
         offset="0%"
         id="stop1088" />
      <stop
         style="stop-color: #270e49;stop-opacity: 1"
         offset="100%"
         id="stop1090" />
    </linearGradient>
    <path
       d="M0 300L0 250L150 250L0 300ZM0 250L0 0L250 250L0 250Z"
       id="dchl3fpEu" />
    <linearGradient
       id="gradientbzld097T0"
       gradientUnits="userSpaceOnUse"
       x1="31"
       y1="91"
       x2="133.67"
       y2="200">
      <stop
         style="stop-color: #590000;stop-opacity: 1"
         offset="0%"
         id="stop1094" />
      <stop
         style="stop-color: #480929;stop-opacity: 1"
         offset="100%"
         id="stop1096" />
    </linearGradient>
    <path
       d="M225 225L250 250L200 250L150 250L175 225L200 200L225 225Z"
       id="aaQ8KFTUCN" />
    <linearGradient
       inkscape:collect="always"
       xlink:href="#linearGradient55613"
       id="linearGradient55681"
       gradientUnits="userSpaceOnUse"
       x1="30.043562"
       y1="377.49228"
       x2="126.13177"
       y2="319.81509"
       gradientTransform="matrix(2.9978524,0,-1.1529711,0.57693697,461.38307,169.18109)" />
    <linearGradient
       inkscape:collect="always"
       xlink:href="#linearGradient65967"
       id="linearGradient65969"
       x1="525.61542"
       y1="177.88603"
       x2="383.59842"
       y2="119.48602"
       gradientUnits="userSpaceOnUse"
       gradientTransform="matrix(0,-1.2261673,1,0.00540796,412.27697,713.93213)" />
  </defs>
  <g
     id="g1128">
    <g
       id="g1472"
       transform="translate(-80.479146,504.88939)">
      <g
         id="g1116">
        <use
           xlink:href="#a1QyLh3ui9"
           opacity="1"
           fill="url(#gradienta166xCTMhK)"
           id="use1114"
           style="fill:url(#gradienta166xCTMhK)"
           x="0"
           y="0"
           width="100%"
           height="100%" />
      </g>
      <g
         id="g1120">
        <use
           xlink:href="#dchl3fpEu"
           opacity="1"
           fill="url(#gradientbzld097T0)"
           id="use1118"
           style="fill:url(#gradientbzld097T0)"
           x="0"
           y="0"
           width="100%"
           height="100%" />
      </g>
      <g
         id="g1124"
         style="stroke-width:1.0015748;stroke-miterlimit:4;stroke-dasharray:none;fill:#31082c;fill-opacity:1">
        <use
           xlink:href="#aaQ8KFTUCN"
           opacity="1"
           fill="#31082c"
           fill-opacity="1"
           id="use1122"
           x="0"
           y="0"
           width="100%"
           height="100%"
           style="stroke-width:1.0015748;stroke-miterlimit:4;stroke-dasharray:none;fill:#31082c;fill-opacity:1" />
      </g>
    </g>
    <path
       id="rect1918"
       style="fill:#31082c;stroke-width:2.55033"
       d="m 600.53598,226.67127 c 0.14063,173.58837 0,0 0,174.16239 L 454.1731,300.25964 Z"
       sodipodi:nodetypes="cccc" />
    <path
       id="path13755"
       style="fill:url(#linearGradient55681);fill-opacity:1;stroke-width:1.3172"
       inkscape:transform-center-x="66.6145"
       inkscape:transform-center-y="-16.666666"
       d="M 601.64235,400.25964 H 301.64238 1.6423663 c 453.4876737,-100 16.5030117,0 453.4876737,-100 146.36289,100.57402 0,0 146.51231,100 z"
       sodipodi:nodetypes="ccccc" />
    <path
       id="path53689"
       style="fill:url(#linearGradient65969);fill-opacity:1;stroke-width:1.10906"
       inkscape:transform-center-x="23.542888"
       inkscape:transform-center-y="0.25465192"
       d="m 600.44281,1.7906 v 99.99999 l 0.0861,125.83761 -146.35581,73.58838 z"
       sodipodi:nodetypes="ccccc" />
  </g>
</svg>
